# Blender v2.80 (sub 75) OBJ File: ''
# www.blender.org
mtllib Pyramid_2.mtl
o Cone
v 0.000000 0.068312 -2.500000
v 0.000000 2.568312 0.000000
v 2.500000 0.068312 0.000000
v 0.000000 0.068312 2.500000
v -2.500000 0.068312 0.000000
vt 0.002002 0.498999
vt 0.498999 0.498999
vt 0.498999 0.002002
vt 0.002002 0.998999
vt 0.498999 0.998999
vt 0.498999 0.502002
vt 0.497998 0.501001
vt 0.001001 0.501001
vt 0.001001 0.997998
vt 0.497998 0.001001
vt 0.001001 0.001001
vt 0.001001 0.497998
vt 0.998999 0.001001
vt 0.501001 0.001001
vt 0.501001 0.498999
vt 0.998999 0.498999
vn 0.5774 0.5774 -0.5774
vn 0.5774 0.5774 0.5774
vn -0.5774 0.5774 0.5774
vn -0.5774 0.5774 -0.5774
vn 0.0000 -1.0000 -0.0000
usemtl None
s 1
f 1/1/1 2/2/1 3/3/1
f 3/4/2 2/5/2 4/6/2
f 4/7/3 2/8/3 5/9/3
f 5/10/4 2/11/4 1/12/4
f 1/13/5 3/14/5 4/15/5 5/16/5
